<svg xmlns="http://www.w3.org/2000/svg" width="1594.73" height="986.374" viewBox="0 0 1594.73 986.374"><defs><style>.a{opacity:0.31;}.b,.e{fill:#f17587;}.c{opacity:0.08;}.d{opacity:0.1;}.e{opacity:0.21;}</style></defs><g transform="translate(-1611.3 -32.426)"><g class="a" transform="translate(1704.3 683.426)"><path class="b" d="M2498.225,221.7a26.307,26.307,0,0,0-35.023,0l-6.591,6.011-6.587-6.011a26.307,26.307,0,0,0-35.023,0c-10.866,9.941-10.866,26.123,0,36.18l41.5,38.145,41.5-38.145C2509.2,247.824,2509.2,231.641,2498.225,221.7Z" transform="translate(-2406.851 -215.025)"/></g><g class="a" transform="translate(2986.3 417.426)"><path class="b" d="M2445.922,217.879a11.249,11.249,0,0,0-14.976,0l-2.818,2.57-2.817-2.57a11.249,11.249,0,0,0-14.976,0,10.328,10.328,0,0,0,0,15.471l17.744,16.311,17.744-16.311A10.187,10.187,0,0,0,2445.922,217.879Z" transform="translate(-2406.851 -215.025)"/></g><g class="a" transform="translate(1611.3 32.426)"><path class="b" d="M2445.922,217.879a11.249,11.249,0,0,0-14.976,0l-2.818,2.57-2.817-2.57a11.249,11.249,0,0,0-14.976,0,10.328,10.328,0,0,0,0,15.471l17.744,16.311,17.744-16.311A10.187,10.187,0,0,0,2445.922,217.879Z" transform="translate(-2406.851 -215.025)"/></g><g class="c" transform="translate(2945.3 658.426)"><path class="b" d="M2646.095,232.5c-25.422-23.3-66.277-23.3-91.7,0l-17.257,15.738L2519.888,232.5c-25.419-23.3-66.275-23.3-91.7,0-28.45,26.028-28.45,68.4,0,94.729l108.648,99.874,108.652-99.874C2674.844,300.9,2674.844,258.531,2646.095,232.5Z" transform="translate(-2406.851 -215.025)"/></g><g class="a" transform="translate(2606.3 110.426)"><path class="b" d="M2498.225,221.7a26.307,26.307,0,0,0-35.023,0l-6.591,6.011-6.587-6.011a26.307,26.307,0,0,0-35.023,0c-10.866,9.941-10.866,26.123,0,36.18l41.5,38.145,41.5-38.145C2509.2,247.824,2509.2,231.641,2498.225,221.7Z" transform="translate(-2406.851 -215.025)"/></g><g class="d" transform="translate(2206.3 218.426)"><path class="b" d="M2462.548,219.094a16.035,16.035,0,0,0-21.349,0l-4.018,3.664-4.016-3.664a16.035,16.035,0,0,0-21.349,0,14.723,14.723,0,0,0,0,22.054l25.294,23.251,25.3-23.251A14.522,14.522,0,0,0,2462.548,219.094Z" transform="translate(-2406.851 -215.025)"/></g><g class="d" transform="translate(2915.3 110.426)"><path class="b" d="M2462.548,219.094a16.035,16.035,0,0,0-21.349,0l-4.018,3.664-4.016-3.664a16.035,16.035,0,0,0-21.349,0,14.723,14.723,0,0,0,0,22.054l25.294,23.251,25.3-23.251A14.522,14.522,0,0,0,2462.548,219.094Z" transform="translate(-2406.851 -215.025)"/></g><path class="e" d="M2595.812,228.83c-20.079-18.406-52.348-18.406-72.428,0l-13.63,12.43-13.623-12.43c-20.078-18.406-52.347-18.406-72.428,0-22.47,20.557-22.47,54.023,0,74.82l85.814,78.883,85.817-78.883C2618.519,282.853,2618.519,249.387,2595.812,228.83Z" transform="translate(-678.551 -30.6)"/><g class="d" transform="translate(1673.3 969.426)"><path class="b" d="M2462.548,219.094a16.035,16.035,0,0,0-21.349,0l-4.018,3.664-4.016-3.664a16.035,16.035,0,0,0-21.349,0,14.723,14.723,0,0,0,0,22.054l25.294,23.251,25.3-23.251A14.522,14.522,0,0,0,2462.548,219.094Z" transform="translate(-2406.851 -215.025)"/></g></g></svg>