<svg xmlns="http://www.w3.org/2000/svg" width="390" height="358" viewBox="0 0 390 358"><defs><style>.a{fill:#f0f3f5;}.b,.d,.e,.f{fill:none;stroke-width:18px;}.b{stroke:#f17587;}.c{opacity:0.15;}.d{stroke:#6db55f;}.e{stroke:#698bab;}.f{stroke:#fed74e;}</style></defs><g transform="translate(-2472 -830)"><rect class="a" width="390" height="358" transform="translate(2472 830)"/><path class="b" d="M121,0A121,121,0,0,1,242,121" transform="translate(2545 1131) rotate(-90)"/><g class="c" transform="translate(2597.541 940.427)"><path d="M2707.527,100.361c-17.454-6.386-23.131-11.778-23.131-23.273,0-6.953,5.392-4.683,7.664-17.312.992-5.251,5.676-.142,6.526-12.062,0-4.825-2.553-5.96-2.553-5.96s1.276-7.1,1.844-12.488C2698.445,22.454,2693.9,5,2669.638,5s-28.808,17.454-28.24,24.266c.57,5.392,1.845,12.488,1.845,12.488s-2.552,1.135-2.552,5.96c.85,11.92,5.676,6.811,6.526,12.062,2.413,12.63,7.662,10.359,7.662,17.312,0,11.494-5.532,16.887-23.129,23.273s-28.95,12.913-28.95,17.312v14.9h133.393v-14.9C2736.477,113.274,2725.122,106.746,2707.527,100.361Z" transform="translate(-2602.8 -5)"/></g><path class="d" d="M121,0A121,121,0,0,1,242,121" transform="translate(2547 889)"/><path class="e" d="M121,0A121,121,0,0,1,242,121" transform="translate(2789 891) rotate(90)"/><path class="f" d="M121,0A121,121,0,0,1,242,121" transform="translate(2787 1133) rotate(180)"/></g></svg>