<svg xmlns="http://www.w3.org/2000/svg" width="157" height="157" viewBox="0 0 157 157"><g transform="translate(-2301 -1366)"><g transform="translate(2301 1366)" fill="#fff7da" stroke="#fed74e" stroke-width="13"><circle cx="78.5" cy="78.5" r="78.5" stroke="none"/><circle cx="78.5" cy="78.5" r="72" fill="none"/></g><g transform="translate(2340.525 1405.767)"><path d="M1469.422,813.052H1465.8v8.053h-12.885v-8.053h-23.353v8.053h-12.884v-8.053h-3.624a8.076,8.076,0,0,0-8.053,8.053v48.317a8.076,8.076,0,0,0,8.053,8.052h56.369a8.077,8.077,0,0,0,8.053-8.052V821.105A8.077,8.077,0,0,0,1469.422,813.052Zm0,56.369h-56.369V837.211h56.369ZM1425.937,805H1420.3v13.69h5.637Zm36.237,0h-5.636v13.69h5.636Z" transform="translate(-1405 -805)" fill="#fed74e"/></g></g></svg>